# xmcd CD database file
#
# Track frame offsets:
#	150
#	13895
#	20347
#	35388
#	52728
#	68972
#	83668
#	104662
#	124522
#	144173
#	159554
#	174593
#	191175
#	209727
#	226283
#	241341
#	255324
#	271670
#	292324
#	310449
#
# Disc length: 4197 seconds
#
# Revision: 0
# Processed by: cddbd v1.5.2PL0 Copyright (c) Steve Scherf et al.
# Submitted via: CDex 1.51
#
DISCID=1b106314
DTITLE=Watson, Aaron - Red Bandana
DYEAR=2019
DGENRE=Country
TTITLE0=Ghost Of Guy Clark
TTITLE1=El Comienzo del Viaje
TTITLE2=Dark Horse
TTITLE3=Heartstrings
TTITLE4=Old Friend
TTITLE5=Kiss That girl Goodbye
TTITLE6=Country Radio
TTITLE7=Legends
TTITLE8=Am I Amarillo
TTITLE9=Blood Brothers
TTITLE10=Live Or Die Trying
TTITLE11=Riding With Red
TTITLE12=Red Bandana
TTITLE13=Trying Like The Devil
TTITLE14=Home Sweet Home
TTITLE15=Burn Em Down
TTITLE16=Shake A Heartache
TTITLE17=You On My Hands
TTITLE18=To Be The Moon
TTITLE19=58
EXTD=YEAR: 2019
EXTT0=
EXTT1=
EXTT2=
EXTT3=
EXTT4=
EXTT5=
EXTT6=
EXTT7=
EXTT8=
EXTT9=
EXTT10=
EXTT11=
EXTT12=
EXTT13=
EXTT14=
EXTT15=
EXTT16=
EXTT17=
EXTT18=
EXTT19=
PLAYORDER=
